<?xml version="1.0" encoding="utf-8"?>
<!-- Generator: Adobe Illustrator 24.1.1, SVG Export Plug-In . SVG Version: 6.00 Build 0)  -->
<svg version="1.1" id="Layer_1" xmlns="http://www.w3.org/2000/svg" xmlns:xlink="http://www.w3.org/1999/xlink" x="0px" y="0px"
	 viewBox="0 0 512 512" style="enable-background:new 0 0 512 512;" xml:space="preserve">
<g>
	<path d="M96,192V42.7h279.2l62.2,62.2v364.5l-128,0V512l170.7,0V87.2L392.8,0H53.3v192H96z M330.7,21.3v128h128v-42.7l-85.3,0
		l0-85.3H330.7L330.7,21.3z M181.3,298.7v-64h-42.7v64H181.3z M160,426.7V448c47.1,0,85.3-38.2,85.3-85.3
		c0-47.1-38.2-85.3-85.3-85.3c-47.1,0-85.3,38.2-85.3,85.3c0,47.1,38.2,85.3,85.3,85.3V426.7v-21.3c-23.6,0-42.6-19.1-42.7-42.7
		c0-23.6,19.1-42.6,42.7-42.7c23.6,0,42.6,19.1,42.7,42.7c0,23.6-19.1,42.6-42.7,42.7V426.7z M181.3,490.7v-64h-42.7v64H181.3z
		 M224,384h64v-42.7h-64V384z M32,384h64v-42.7H32V384z M59.6,292.4l42.7,42.7l30.2-30.2l-42.7-42.7L59.6,292.4z M187.6,420.4
		l42.7,42.7l30.2-30.2l-42.7-42.7L187.6,420.4z M230.2,262.2l-42.7,42.7l30.2,30.2l42.7-42.7L230.2,262.2z M102.2,390.2l-42.7,42.7
		l30.2,30.2l42.7-42.7L102.2,390.2z"/>
</g>
</svg>
